<svg width="169" height="57" viewBox="0 0 169 57" fill="none" xmlns="http://www.w3.org/2000/svg">
<path d="M161.578 1.59196C164.466 1.59196 166.818 3.92595 166.818 6.7972V49.8417C166.818 52.7108 164.469 55.047 161.578 55.047H6.84233C3.95423 55.047 1.60252 52.713 1.60252 49.8417V6.7972C1.60252 3.92815 3.95201 1.59196 6.84233 1.59196H161.578ZM161.578 0H6.84233C3.06763 0 0 3.0474 0 6.7972V49.8417C0 53.5915 3.06763 56.6389 6.84233 56.6389H161.578C165.353 56.6389 168.421 53.5915 168.421 49.8417V6.7972C168.421 3.0474 165.353 0 161.578 0Z" fill="black"/>
<path d="M27.7971 17.775C27.5688 15.9497 28.4798 14.0142 29.4949 12.8252C30.6475 11.4776 32.6534 10.445 34.2493 10.3789C34.4554 12.2813 33.7018 14.1507 32.5958 15.5225C31.4454 16.87 29.5969 17.9115 27.7971 17.7772V17.775Z" fill="black"/>
<path d="M40.9786 33.9151C40.9565 34.0274 40.3181 36.2381 38.7333 38.4686C37.399 40.4415 36.0181 42.3659 33.8061 42.3989C31.6627 42.443 30.9446 41.1416 28.4798 41.1416C26.0151 41.1416 25.2304 42.3659 23.178 42.443C21.0679 42.5222 19.4742 40.338 18.0933 38.3893C15.3449 34.4017 13.2126 27.1531 16.0741 22.2231C17.455 19.801 19.9973 18.2465 22.6992 18.2025C24.796 18.1694 26.7576 19.6183 28.0476 19.6183C29.3376 19.6183 31.7292 17.8722 34.2161 18.1342C35.2556 18.1694 38.2191 18.5526 40.1342 21.3181C39.9857 21.4084 36.6099 23.3813 36.6454 27.4349C36.6897 32.2835 40.921 33.8931 40.9786 33.9151Z" fill="black"/>
<path d="M59.4598 25.4307H56.1085L50.6913 42.1627H53.4863L54.978 37.2459H60.4506L62.0243 42.1627H64.8969L59.4576 25.4307H59.4598ZM55.4568 35.1828L56.8598 30.8231C57.2234 29.4403 57.4849 28.3878 57.6578 27.6744H57.7132C58.1255 29.328 58.4092 30.3695 58.5577 30.8231L59.9829 35.1828H55.4568Z" fill="black"/>
<path d="M77.3624 31.5362C76.4049 30.4155 75.219 29.8496 73.7827 29.8496C71.9586 29.8496 70.5888 30.574 69.6889 32.0119H69.6423L69.4938 30.0962H67.1222C67.1909 31.4548 67.2241 32.7693 67.2241 34.0618V47.0551H69.926V40.7225C70.6331 41.8675 71.7835 42.4333 73.3926 42.4333C74.8755 42.4333 76.13 41.9115 77.1341 40.848C78.2645 39.659 78.8208 38.0384 78.8208 35.9884C78.8208 34.1433 78.3421 32.668 77.3624 31.5362ZM75.219 39.1592C74.6494 39.9298 73.8625 40.3261 72.8474 40.3261C71.9807 40.3261 71.2737 40.0201 70.7373 39.4212C70.2009 38.8201 69.9283 38.0714 69.9283 37.2017V35.1848C69.9283 34.969 69.9726 34.6981 70.0546 34.3701C70.2142 33.6545 70.5799 33.0886 71.1141 32.6482C71.6616 32.2188 72.2667 31.992 72.9272 31.992C73.9091 31.992 74.6937 32.3884 75.2767 33.181C75.8131 33.9407 76.0746 34.9029 76.0746 36.0809C76.0746 37.3602 75.7887 38.3797 75.219 39.1614V39.1592Z" fill="black"/>
<path d="M91.3175 31.5362C90.3599 30.4155 89.1741 29.8496 87.7378 29.8496C85.9137 29.8496 84.5461 30.574 83.6439 32.0119H83.5996L83.4511 30.0962H81.0795C81.1482 31.4548 81.1814 32.7693 81.1814 34.0618V47.0551H83.8833V40.7225C84.5904 41.8675 85.743 42.4333 87.3499 42.4333C88.8328 42.4333 90.0873 41.9115 91.0892 40.848C92.2196 39.659 92.7781 38.0384 92.7781 35.9884C92.7781 34.1433 92.2994 32.668 91.3175 31.5362ZM89.1763 39.1592C88.6178 39.9298 87.8176 40.3261 86.8047 40.3261C85.938 40.3261 85.231 40.0201 84.6946 39.4212C84.1582 38.8201 83.8833 38.0714 83.8833 37.2017V35.1848C83.8833 34.969 83.9299 34.6981 84.0097 34.3701C84.1803 33.6545 84.535 33.0886 85.0714 32.6482C85.6189 32.2188 86.2217 31.992 86.8845 31.992C87.8642 31.992 88.651 32.3884 89.2318 33.181C89.7681 33.9407 90.0297 34.9029 90.0297 36.0809C90.0297 37.3602 89.7571 38.3797 89.1763 39.1614V39.1592Z" fill="black"/>
<path d="M107.363 34.5624C108.059 35.344 108.4 36.3173 108.4 37.4732C108.4 38.9001 107.899 40.056 106.906 40.95C105.811 41.9232 104.284 42.4121 102.322 42.4121C100.507 42.4121 99.0619 42.0598 97.9669 41.3706L98.5942 39.1379C99.78 39.8292 101.081 40.1793 102.493 40.1793C103.508 40.1793 104.306 39.9526 104.865 39.5012C105.434 39.0476 105.72 38.4355 105.72 37.678C105.72 36.9976 105.481 36.4318 105.024 35.9672C104.557 35.5026 103.781 35.071 102.697 34.6746C99.7202 33.5759 98.2506 31.9773 98.2506 29.8834C98.2506 28.5138 98.776 27.3908 99.8133 26.5079C100.853 25.6359 102.231 25.1934 103.954 25.1934C105.481 25.1934 106.758 25.4554 107.773 25.986L107.09 28.1615C106.133 27.6529 105.06 27.3908 103.852 27.3908C102.905 27.3908 102.152 27.6286 101.618 28.0822C101.172 28.5006 100.944 29.0004 100.944 29.6015C100.944 30.2577 101.207 30.8148 101.719 31.2331C102.165 31.6295 102.985 32.0588 104.171 32.5234C105.62 33.1025 106.68 33.7807 107.365 34.5624H107.363Z" fill="black"/>
<path d="M114.365 30.0961H117.341V32.1131H114.365V37.9701C114.365 39.4541 114.89 40.2006 115.938 40.2006C116.417 40.2006 116.816 40.1565 117.135 40.075L117.215 42.114C116.679 42.3056 115.985 42.409 115.118 42.409C114.045 42.409 113.225 42.081 112.62 41.4336C112.017 40.7885 111.718 39.7007 111.718 38.1836V32.0998H109.952V30.0939H111.718V27.8854L114.365 27.0928V30.0939V30.0961Z" fill="black"/>
<path d="M129.175 31.6265C128.094 30.4485 126.655 29.8584 124.877 29.8584C123.1 29.8584 121.559 30.4595 120.464 31.6485C119.38 32.8375 118.833 34.3678 118.833 36.235C118.833 38.1022 119.358 39.5092 120.418 40.6762C121.48 41.8432 122.905 42.4311 124.682 42.4311C126.46 42.4311 128.012 41.819 129.129 40.5948C130.188 39.4057 130.725 37.8886 130.725 36.0303C130.725 34.1719 130.21 32.7561 129.173 31.6243L129.175 31.6265ZM127.191 38.9676C126.6 39.943 125.788 40.4296 124.762 40.4296C123.736 40.4296 122.891 39.954 122.311 38.9896C121.832 38.2079 121.593 37.2567 121.593 36.147C121.593 35.0372 121.821 34.042 122.311 33.2471C122.869 32.2849 123.703 31.8071 124.787 31.8071C125.87 31.8071 126.644 32.2827 127.216 33.2471C127.695 34.0398 127.934 34.98 127.934 36.0897C127.934 37.1995 127.684 38.1507 127.194 38.9654L127.191 38.9676Z" fill="black"/>
<path d="M139.495 29.8949L139.506 32.4535C139.245 32.4094 138.959 32.3852 138.653 32.3852C137.706 32.3852 136.966 32.7375 136.452 33.4509C136.006 34.0718 135.778 34.8777 135.778 35.8289V42.1615H133.076V33.8935C133.076 32.4997 133.054 31.2314 132.996 30.0974H135.346L135.448 32.4094H135.528C135.811 31.6167 136.257 30.9694 136.873 30.4938C137.478 30.0644 138.128 29.8486 138.824 29.8486C139.074 29.8486 139.302 29.8707 139.497 29.8927L139.495 29.8949Z" fill="black"/>
<path d="M151.571 35.557C151.571 34.0509 151.207 32.7936 150.489 31.7499C149.598 30.4596 148.266 29.8145 146.519 29.8145C144.773 29.8145 143.328 30.4596 142.277 31.7499C141.273 32.9631 140.772 34.4802 140.772 36.2946C140.772 38.1089 141.308 39.6238 142.379 40.7226C143.452 41.8213 144.932 42.3762 146.814 42.3762C148.377 42.3762 149.733 42.1274 150.886 41.6275L150.465 39.7713C149.483 40.1457 148.388 40.3372 147.191 40.3372C146.109 40.3372 145.229 40.0532 144.547 39.4983C143.793 38.8752 143.407 37.957 143.372 36.768H151.467C151.535 36.4399 151.568 36.0326 151.568 35.5547L151.571 35.557ZM143.383 34.8546C143.463 34.0487 143.738 33.3485 144.181 32.7694C144.728 32.045 145.447 31.6816 146.324 31.6816C147.282 31.6816 148.002 32.056 148.468 32.8046C148.831 33.3815 149.015 34.0729 148.993 34.8656L143.381 34.8546H143.383Z" fill="black"/>
<path d="M56.5717 11.3057C59.3689 11.3057 61.0247 13.0143 61.0247 15.9626C61.0247 18.911 59.3756 20.6504 56.5717 20.6504H53.2536V11.3057H56.5717ZM54.7143 19.3932H56.4343C58.4291 19.3932 59.5307 18.1821 59.5307 15.9736C59.5307 13.7652 58.4225 12.5541 56.4343 12.5541H54.7143V19.3932Z" fill="black"/>
<path d="M61.9379 17.2445C61.9379 15.0558 63.2345 13.7148 65.1917 13.7148C67.1488 13.7148 68.4455 15.0558 68.4455 17.2445C68.4455 19.4331 67.1555 20.7807 65.1917 20.7807C63.2279 20.7807 61.9379 19.4397 61.9379 17.2445ZM67.0092 17.2445C67.0092 15.7362 66.291 14.8686 65.1895 14.8686C64.0879 14.8686 63.3697 15.7362 63.3697 17.2445C63.3697 18.7527 64.0879 19.6269 65.1895 19.6269C66.291 19.6269 67.0092 18.7593 67.0092 17.2445Z" fill="black"/>
<path d="M76.6754 20.6505H75.2081L73.7673 15.5465H73.7341L72.3067 20.6505H70.8527L68.9686 13.8379H70.3761L71.6284 19.1995H71.655L73.0825 13.8379H74.439L75.873 19.1995H75.9063L77.1586 13.8379H78.5528L76.6754 20.6505Z" fill="black"/>
<path d="M79.4149 13.8394H80.7581V14.9799H80.7913C81.1637 14.2027 81.8929 13.7227 82.9479 13.7227C84.4596 13.7227 85.3263 14.6805 85.3263 16.2416V20.652H83.9121V16.5146C83.9121 15.4908 83.4289 14.9271 82.4514 14.9271C81.474 14.9271 80.8223 15.6273 80.8223 16.682V20.652H79.4149V13.8394Z" fill="black"/>
<path d="M86.7337 11.3057H88.1412V20.6504H86.7337V11.3057Z" fill="black"/>
<path d="M89.2827 17.2445C89.2827 15.0558 90.5794 13.7148 92.5365 13.7148C94.4937 13.7148 95.7903 15.0558 95.7903 17.2445C95.7903 19.4331 94.5003 20.7807 92.5365 20.7807C90.5727 20.7807 89.2827 19.4397 89.2827 17.2445ZM94.3541 17.2445C94.3541 15.7362 93.6359 14.8686 92.5343 14.8686C91.4327 14.8686 90.7146 15.7362 90.7146 17.2445C90.7146 18.7527 91.4327 19.6269 92.5343 19.6269C93.6359 19.6269 94.3541 18.7593 94.3541 17.2445Z" fill="black"/>
<path d="M96.6038 18.7124C96.6038 17.5212 97.5237 16.7901 99.1528 16.6977L101.03 16.5876V16.0635C101.03 15.3061 100.516 14.8525 99.6537 14.8525C98.8381 14.8525 98.3305 15.24 98.2064 15.8499H96.8765C96.954 14.6191 98.0113 13.7119 99.7047 13.7119C101.398 13.7119 102.429 14.5861 102.429 15.9534V20.6478H101.079V19.5271H101.046C100.649 20.2845 99.7801 20.7645 98.8824 20.7645C97.5392 20.7645 96.6016 19.9366 96.6016 18.7124H96.6038ZM101.03 18.0981V17.5608L99.3412 17.6643C98.5012 17.7215 98.0246 18.0915 98.0246 18.6749C98.0246 19.2584 98.5211 19.6592 99.2769 19.6592C100.261 19.6592 101.03 18.9854 101.03 18.0981Z" fill="black"/>
<path d="M103.488 17.2441C103.488 15.0951 104.636 13.7277 106.356 13.7277C107.341 13.7277 108.123 14.221 108.509 14.9718H108.535V11.3057H109.949V20.6504H108.58V19.4922H108.553C108.15 20.2695 107.367 20.7671 106.37 20.7671C104.636 20.7671 103.488 19.3954 103.488 17.2441ZM104.929 17.2441C104.929 18.682 105.627 19.5825 106.742 19.5825C107.857 19.5825 108.548 18.6687 108.548 17.2441C108.548 15.8195 107.826 14.9057 106.742 14.9057C105.658 14.9057 104.929 15.8129 104.929 17.2441Z" fill="black"/>
<path d="M113.786 17.2445C113.786 15.0558 115.083 13.7148 117.04 13.7148C118.997 13.7148 120.294 15.0558 120.294 17.2445C120.294 19.4331 119.004 20.7807 117.04 20.7807C115.076 20.7807 113.786 19.4397 113.786 17.2445ZM118.857 17.2445C118.857 15.7362 118.139 14.8686 117.038 14.8686C115.936 14.8686 115.218 15.7362 115.218 17.2445C115.218 18.7527 115.936 19.6269 117.038 19.6269C118.139 19.6269 118.857 18.7593 118.857 17.2445Z" fill="black"/>
<path d="M121.382 13.8394H122.725V14.9799H122.758C123.131 14.2027 123.86 13.7227 124.915 13.7227C126.427 13.7227 127.293 14.6805 127.293 16.2416V20.652H125.879V16.5146C125.879 15.4908 125.396 14.9271 124.419 14.9271C123.441 14.9271 122.789 15.6273 122.789 16.682V20.652H121.382V13.8394Z" fill="black"/>
<path d="M133.181 12.2236V13.8354H134.484V14.943H133.181V18.6994C133.181 19.2895 133.442 19.5537 134.014 19.5537C134.158 19.5537 134.386 19.5405 134.477 19.5207V20.6282C134.32 20.6678 134.007 20.6921 133.695 20.6921C132.307 20.6921 131.764 20.168 131.764 18.8535V14.943H130.767V13.8354H131.764V12.2236H133.178H133.181Z" fill="black"/>
<path d="M135.69 11.3057H137.084V14.9784H137.117C137.496 14.1813 138.245 13.7211 139.287 13.7211C140.792 13.7211 141.692 14.7186 141.692 16.2599V20.6504H140.278V16.5329C140.278 15.5289 139.77 14.9278 138.779 14.9278C137.735 14.9278 137.097 15.6412 137.097 16.7157V20.6526H135.69V11.3079V11.3057Z" fill="black"/>
<path d="M148.929 18.6493C148.734 19.8933 147.548 20.7807 145.976 20.7807C143.961 20.7807 142.742 19.4265 142.742 17.2775C142.742 15.1285 143.981 13.7148 145.916 13.7148C147.851 13.7148 149.006 15.0492 149.006 17.1145V17.5946H144.163V17.6782C144.163 18.8628 144.881 19.6467 146.007 19.6467C146.81 19.6467 147.401 19.246 147.592 18.6493H148.929ZM144.17 16.6147H147.599C147.565 15.571 146.901 14.84 145.916 14.84C144.932 14.84 144.241 15.5842 144.17 16.6147Z" fill="black"/>
</svg>
