<svg width="169" height="57" viewBox="0 0 169 57" fill="none" xmlns="http://www.w3.org/2000/svg">
<path d="M161.578 1.59196C164.466 1.59196 166.818 3.92595 166.818 6.7972V49.8417C166.818 52.7108 164.469 55.047 161.578 55.047H6.84233C3.95423 55.047 1.60253 52.713 1.60253 49.8417V6.7972C1.60253 3.92815 3.95201 1.59196 6.84233 1.59196H161.578ZM161.578 0H6.84233C3.06763 0 0 3.0474 0 6.7972V49.8417C0 53.5915 3.06763 56.6389 6.84233 56.6389H161.578C165.353 56.6389 168.421 53.5915 168.421 49.8417V6.7972C168.421 3.0474 165.353 0 161.578 0Z" fill="black"/>
<path d="M152.743 32.0307L150.232 38.3831H150.156L147.537 32.0307H145.167L149.093 40.9131L146.849 45.8519H149.152L155.206 32.0307H152.745H152.743ZM134.996 26.7594H132.801V41.4129H134.996V26.7594ZM126.741 26.7594H121.468V41.4129H123.678V35.8664H126.75C129.332 35.9545 131.498 33.9464 131.587 31.379C131.587 31.3591 131.587 31.3371 131.587 31.3173C131.533 28.7455 129.39 26.7044 126.801 26.7594C126.781 26.7594 126.759 26.7594 126.739 26.7594H126.741ZM126.801 33.8186H123.678V28.8292H126.81C128.198 28.8292 129.321 29.9455 129.321 31.3239C129.321 32.7023 128.198 33.8186 126.81 33.8186H126.801ZM140.404 31.7158C138.761 31.6234 137.221 32.5041 136.478 33.9618L138.438 34.7941C138.835 34.0741 139.624 33.6557 140.446 33.7306C141.605 33.6161 142.638 34.455 142.756 35.6066C142.756 35.611 142.756 35.6132 142.756 35.6176V35.7673C142.053 35.3908 141.268 35.1926 140.47 35.1926C138.369 35.1926 136.226 36.3398 136.226 38.5197C136.226 40.4815 137.941 41.7454 139.883 41.7454C141.009 41.8159 142.084 41.2676 142.678 40.3142H142.762V41.446H144.906V35.8069C144.906 33.2043 142.946 31.7577 140.419 31.7577L140.402 31.7158H140.404ZM140.145 39.7483C139.424 39.7483 138.42 39.3828 138.42 38.4998C138.42 37.3681 139.668 36.9365 140.756 36.9365C141.459 36.9189 142.153 37.0884 142.764 37.4275C142.598 38.742 141.479 39.7329 140.145 39.7483ZM60.7696 41.7278C56.4341 41.741 52.8943 38.2907 52.8256 33.986C52.8943 29.6813 56.4341 26.2288 60.7696 26.2442C62.7755 26.2112 64.7083 26.9818 66.1357 28.3822L64.6196 29.8707C63.5912 28.871 62.2081 28.3139 60.7696 28.325C57.6399 28.325 55.102 30.8461 55.102 33.9552C55.102 37.0642 57.6399 39.5854 60.7696 39.5854C62.248 39.6448 63.6842 39.0811 64.7216 38.0308C65.402 37.302 65.8143 36.3618 65.8852 35.3688H60.7696V33.3144H67.9687C68.0463 33.7504 68.084 34.193 68.0773 34.6355C68.1505 36.4763 67.4833 38.2708 66.2266 39.625C64.7903 41.065 62.8065 41.8313 60.7696 41.73V41.7278ZM79.2108 36.7383C79.3238 39.4643 77.1894 41.7652 74.4476 41.8775C71.7035 41.9898 69.3873 39.8694 69.2742 37.1457C69.2676 37.0114 69.2676 36.8749 69.2742 36.7405C69.1612 34.0146 71.2957 31.7137 74.0375 31.6014C76.7815 31.4891 79.0978 33.6095 79.2108 36.3332C79.2175 36.4675 79.2175 36.604 79.2108 36.7383ZM77.0342 36.7383C77.1805 35.2058 76.0501 33.8473 74.5074 33.7019C72.9647 33.5566 71.5971 34.6796 71.4508 36.2121C71.4331 36.3882 71.4331 36.5644 71.4508 36.7383C71.3046 38.2708 72.435 39.6294 73.9777 39.7747C75.5203 39.9201 76.8879 38.7971 77.0342 37.2646C77.0519 37.0884 77.0519 36.9123 77.0342 36.7383ZM90.3443 36.7383C90.3443 39.4621 88.1211 41.6705 85.3793 41.6705C82.6375 41.6705 80.4144 39.4621 80.4144 36.7383C80.4144 34.0146 82.6375 31.8061 85.3793 31.8061C88.1211 31.8061 90.3443 34.0146 90.3443 36.7383ZM88.1765 36.7383C88.3228 35.2058 87.1924 33.8473 85.6497 33.7019C84.107 33.5566 82.7395 34.6796 82.5932 36.2121C82.5754 36.3882 82.5754 36.5644 82.5932 36.7383C82.4469 38.2708 83.5773 39.6294 85.12 39.7747C86.6627 39.9201 88.0302 38.7971 88.1765 37.2646C88.1943 37.0884 88.1943 36.9123 88.1765 36.7383ZM101.21 32.0571V41.0144C101.21 44.6893 99.0086 46.2042 96.413 46.2042C94.467 46.2196 92.7048 45.0724 91.9424 43.2933L93.8419 42.461C94.2453 43.4981 95.2339 44.1961 96.3532 44.2313C98.0266 44.2313 99.0485 43.2075 99.0485 41.305V40.5894H98.9642C98.2993 41.3248 97.3484 41.741 96.3532 41.7278C93.5781 41.7278 91.3306 39.4929 91.3306 36.7383C91.3306 33.9838 93.5804 31.7489 96.3532 31.7489C97.355 31.7269 98.317 32.132 98.9975 32.863H99.0817V32.0307H101.207V32.0549L101.21 32.0571ZM99.259 36.7626C99.3854 35.2102 98.2217 33.8495 96.6591 33.724C96.6303 33.7218 96.5992 33.7196 96.5704 33.7174C94.9634 33.7702 93.7023 35.1089 93.7555 36.7053C93.7555 36.7229 93.7555 36.7427 93.7577 36.7604C93.6823 38.3435 94.9147 39.6867 96.5083 39.7593C96.5283 39.7593 96.5505 39.7593 96.5704 39.7615C98.1175 39.7021 99.3233 38.4074 99.2635 36.8704C99.2635 36.833 99.259 36.7978 99.2568 36.7604L99.259 36.7626ZM105.086 26.7748V41.4195H102.876V26.7748H105.086ZM113.793 38.3853L115.517 39.5171C114.582 40.9043 113.01 41.7344 111.332 41.73C108.646 41.7674 106.438 39.636 106.401 36.9673C106.401 36.8925 106.401 36.8154 106.401 36.7405C106.181 34.215 108.063 31.9889 110.605 31.7709C112.749 31.5859 114.737 32.8961 115.4 34.9284L115.626 35.5031L108.93 38.2554C109.357 39.2088 110.324 39.8078 111.374 39.7681C112.367 39.7527 113.281 39.2309 113.793 38.3875V38.3853ZM108.511 36.5886L113.015 34.7434C112.658 34.0498 111.922 33.6359 111.139 33.6865C109.619 33.7526 108.442 35.0297 108.508 36.5402C108.508 36.5556 108.508 36.5732 108.511 36.5886Z" fill="black"/>
<path d="M27.5998 27.5635L13.3433 42.4019C13.924 44.4431 16.0607 45.6321 18.1154 45.0552C18.4279 44.9671 18.7271 44.8416 19.0064 44.6809L35.0494 35.6047L27.602 27.5635H27.5998Z" fill="#EA4335"/>
<path d="M42.0159 25.0398L35.0783 21.0918L27.2696 27.9L35.1093 35.5824L41.9938 31.6784C43.8401 30.7184 44.5516 28.4549 43.5852 26.6207C43.2283 25.9447 42.6742 25.3943 41.9938 25.0398H42.0159Z" fill="#FBBC04"/>
<path d="M13.341 14.2444C13.2545 14.5615 13.2124 14.8873 13.2124 15.2154V41.431C13.2124 41.7591 13.2568 42.0849 13.341 42.402L28.0873 27.9423L13.341 14.2422V14.2444Z" fill="#4285F4"/>
<path d="M27.7062 28.3225L35.0782 21.0937L19.0574 11.9757C18.4545 11.6256 17.7696 11.4385 17.0714 11.4385C15.3381 11.4341 13.8132 12.5791 13.3433 14.2349L27.7062 28.3247V28.3225Z" fill="#34A853"/>
<path d="M56.5516 21.2275C54.2796 21.2275 52.8256 19.5804 52.8256 17.0109C52.8256 14.4413 54.2752 12.8779 56.5516 12.8779C58.3092 12.8779 59.6458 13.9128 59.9494 15.5202H58.8833C58.5442 14.4281 57.693 13.8071 56.5493 13.8071C54.8759 13.8071 53.8674 15.0049 53.8674 17.0043C53.8674 19.0036 54.8936 20.2961 56.5493 20.2961C57.9923 20.2961 58.9853 19.3669 58.9853 18.0105V17.8652H56.6912V16.98H60.0004V17.7463C60.0004 19.9305 58.7215 21.223 56.5516 21.223V21.2275Z" fill="black"/>
<path d="M66.3353 21.0936H61.2972V13.0127H66.3353V13.9199H62.3102V16.5115H66.127V17.4076H62.3102V20.1842H66.3353V21.0914V21.0936Z" fill="black"/>
<path d="M69.731 21.0936V13.9199H67.1665V13.0127H73.3106V13.9199H70.7461V21.0936H69.731Z" fill="black"/>
<path d="M76.7483 21.0936V13.0127H77.7635V21.0936H76.7483Z" fill="black"/>
<path d="M79.3417 21.0936V13.0127H80.328L84.781 19.3563H84.8319V13.0127H85.836V21.0936H84.8497L80.3967 14.772H80.3457V21.0936H79.3417Z" fill="black"/>
<path d="M96.9628 17.0549C96.9628 19.6201 95.5199 21.2275 93.2147 21.2275C90.9096 21.2275 89.4666 19.6201 89.4666 17.0549C89.4666 14.4897 90.9096 12.8779 93.2147 12.8779C95.5199 12.8779 96.9628 14.4897 96.9628 17.0549ZM90.5084 17.0549C90.5084 19.0432 91.5501 20.2961 93.2147 20.2961C94.8793 20.2961 95.9211 19.041 95.9211 17.0549C95.9211 15.0688 94.8793 13.8071 93.2147 13.8071C91.5501 13.8071 90.5084 15.0622 90.5084 17.0549Z" fill="black"/>
<path d="M98.224 21.0936V13.0127H99.2104L103.663 19.3563H103.714V13.0127H104.718V21.0936H103.732L99.2791 14.772H99.2281V21.0936H98.224Z" fill="black"/>
</svg>
